<svg id="Layer_1" data-name="Layer 1" xmlns="http://www.w3.org/2000/svg" viewBox="0 0 466.11 7.86"><defs><style>.cls-1{fill:#dfd3c3;}</style></defs><path class="cls-1" d="M466.05,1.16c-2.29-.07-4.57,0-6.88-.06s-4.56,0-6.84-.09L437.13.64Q422.49.29,407.8.14,394.35,0,380.86,0h-7Q360.5,0,347.14.12q-31.22.23-62.43.57-30.49.38-61,.86l-29.94.5c-10.79.19-21.59.36-32.37.58L94.65,4q-29,.6-57.71,1.76-18.55.72-37,1.68h0q21.2.38,42.41.41,13.9,0,27.76-.13,9-.11,17.9-.27c3.66-.07,7.31-.17,11-.26l29.36-.75c11.19-.27,22.38-.58,33.58-.83l34.65-.78c10.38-.23,20.77-.42,31.16-.63C237.89,4,248,3.85,258.18,3.67s20.45-.3,30.68-.45c10.41-.14,20.83-.22,31.25-.33q28.53-.28,57.09-.29c10.58,0,21.16-.12,31.74-.22S429.8,2.16,440.22,2c4.23-.07,8.49-.12,12.71-.23C455,1.7,457,1.64,459,1.53c1.79-.1,3.54-.24,5.34-.33h0L466,1.15Z" transform="translate(0.06)"/></svg>